<?xml version="1.0" encoding="iso-8859-1"?>
<!-- Generator: Adobe Illustrator 16.0.0, SVG Export Plug-In . SVG Version: 6.00 Build 0)  -->
<!DOCTYPE svg PUBLIC "-//W3C//DTD SVG 1.1//EN" "http://www.w3.org/Graphics/SVG/1.1/DTD/svg11.dtd">
<svg version="1.1" id="Capa_1" xmlns="http://www.w3.org/2000/svg" xmlns:xlink="http://www.w3.org/1999/xlink" x="0px" y="0px"
	 width="30.5px" height="30.499px" viewBox="0 0 30.5 30.499" style="enable-background:new 0 0 30.5 30.499;" xml:space="preserve"
	>
<g>
	<path d="M28.82,27.979l-0.846-4.75c-0.227-1.271-1.392-2.474-2.652-2.738l-4.362-0.92l-0.898-1.842
		c-0.045-0.092-0.123-0.158-0.212-0.207c0.79-1.013,1.421-2.213,1.876-3.42c0.778-0.281,1.562-0.977,1.789-1.881
		c0.302-1.201-0.017-2.271-0.762-2.738V8.634c0.681-2.047,1.034-5.396-2.052-7.199c-1.384-0.807-2.529-0.859-3.396-0.576
		c-0.135-0.352,0.268-0.858,0.268-0.858c-0.711-0.025-1.085,0.354-1.24,0.567c-0.949-0.438-2.192-0.623-3.784-0.289
		c-5.104,1.07-5.756,7.756-4.822,9.222c-0.729,0.471-1.039,1.53-0.74,2.719c0.227,0.908,1.016,1.606,1.798,1.888
		c0.448,1.207,1.074,2.409,1.861,3.42c-0.085,0.049-0.161,0.112-0.205,0.203l-0.899,1.842l-4.364,0.92
		c-1.261,0.269-2.426,1.469-2.652,2.738l-0.846,4.75c-0.118,0.661,0.039,1.293,0.442,1.771c0.403,0.481,0.996,0.746,1.668,0.746
		h22.918c0.673,0,1.266-0.265,1.668-0.746C28.782,29.271,28.938,28.642,28.82,27.979z M27.611,29.109
		c-0.21,0.252-0.529,0.39-0.901,0.39h-4.442v-2.578c0-0.273-0.225-0.5-0.5-0.5s-0.5,0.227-0.5,0.5v2.578H9.234v-2.578
		c0-0.273-0.224-0.5-0.5-0.5c-0.276,0-0.5,0.227-0.5,0.5v2.578H3.792c-0.372,0-0.692-0.138-0.902-0.39
		c-0.21-0.25-0.29-0.59-0.225-0.955l0.846-4.75c0.154-0.866,1.013-1.754,1.874-1.937l4.064-0.856
		c0.023,0.021,0.043,0.045,0.071,0.062l4.391,2.541c0.077,0.045,0.164,0.068,0.25,0.068c0.049,0,0.098-0.008,0.146-0.021
		c0.132-0.041,0.242-0.136,0.303-0.261l0.64-1.308l0.641,1.309c0.061,0.125,0.171,0.22,0.303,0.261
		c0.048,0.014,0.097,0.021,0.146,0.021c0.087,0,0.175-0.023,0.25-0.068l4.392-2.541c0.027-0.018,0.047-0.041,0.07-0.062l4.063,0.856
		c0.861,0.183,1.72,1.068,1.875,1.937l0.846,4.75C27.9,28.521,27.821,28.859,27.611,29.109z M10.783,19.31l0.321-0.658l0.748,0.433
		l0.647,0.375l0.647,0.375l1.481,0.854l-0.681,1.396l-3.062-1.771l-0.461-0.27l0.08-0.164L10.783,19.31z M19.718,19.31l0.278,0.567
		l0.08,0.164l-0.461,0.269l-3.062,1.772l-0.681-1.395l1.48-0.855L18,19.457l0.646-0.375l0.748-0.432L19.718,19.31z M9.598,13.148
		c-0.414,0.088-1.372-0.432-1.561-1.188c-0.194-0.772-0.01-1.494,0.411-1.613c0.125-0.034,0.254-0.006,0.383,0.062V9.253
		c0.002-0.002,0.004-0.004,0.007-0.008C8.834,9.231,8.833,9.208,8.831,9.192V8.794c0.104-0.979,1.03-2.836,6.126-1.166
		c1.755,0.576,2.839-0.336,3.385-1.545c1.73,0.193,2.887,2.158,3.33,3.369v0.959c0.063-0.035,0.128-0.06,0.193-0.07
		c-0.003,0.008-0.002,0.025-0.005,0.031c0.014,0.016,0.039,0.004,0.073-0.027c0.041-0.002,0.082-0.006,0.122,0.004
		c0.42,0.119,0.604,0.84,0.41,1.613c-0.188,0.75-1.139,1.27-1.551,1.191c-0.655,1.989-2.079,4.639-4.142,5.561
		c-0.475,0.211-0.981,0.332-1.521,0.332c-0.548,0-1.061-0.119-1.538-0.33C11.65,17.804,10.253,15.189,9.598,13.148z"/>
</g>
<g>
</g>
<g>
</g>
<g>
</g>
<g>
</g>
<g>
</g>
<g>
</g>
<g>
</g>
<g>
</g>
<g>
</g>
<g>
</g>
<g>
</g>
<g>
</g>
<g>
</g>
<g>
</g>
<g>
</g>
</svg>
